<svg width="54" height="54" xmlns="http://www.w3.org/2000/svg">
 <!-- Generator: Sketch 51.3 (57544) - http://www.bohemiancoding.com/sketch -->
 <title>logo-mobile</title>
 <desc>Created with Sketch.</desc>

 <g>
  <title>background</title>
  <rect fill="none" id="canvas_background" height="402" width="582" y="-1" x="-1"/>
 </g>
 <g>
  <title>Layer 1</title>
  <g fill-rule="evenodd" fill="none" id="Page-1">
   <g id="logo-mobile">
    <rect height="50" width="50" y="2" x="2" fill-rule="nonzero" stroke-width="4" stroke="#1C3ED3" id="Rectangle-6"/>
    <path fill="#1C3ED3" id="." d="m34.402,41.895c-0.476002,-0.518003 -0.714,-1.154996 -0.714,-1.911c0,-0.756004 0.244997,-1.399997 0.735,-1.932c0.490002,-0.532003 1.070997,-0.798 1.743,-0.798c0.700003,0 1.280998,0.265997 1.743,0.798c0.462002,0.532003 0.693,1.175996 0.693,1.932c0,0.756004 -0.244998,1.392997 -0.735,1.911c-0.490002,0.518003 -1.070997,0.777 -1.743,0.777c-0.672003,0 -1.245998,-0.258997 -1.722,-0.777z"/>
    <text xml:space="preserve" text-anchor="start" font-family="'Simonetta', serif" font-size="40" id="svg_1" y="41.453125" x="4.5" stroke-opacity="null" stroke-width="0" stroke="null" fill="#0000ff">W</text>
   </g>
  </g>
 </g>
</svg>
